<svg xmlns="http://www.w3.org/2000/svg" class="twitterSVG" viewBox="0 0 22 18"><path d="M22,2.1071469 C21.1902765,2.46472096 20.3214548,2.70722359 19.4085971,2.81548818 C20.3406868,2.25922604 21.0541782,1.37691627 21.3923389,0.3288062 C20.5180172,0.843940691 19.5529274,1.21799447 18.5246054,1.42076665 C17.7011498,0.54529954 16.5298636,0 15.2307112,0 C12.7383084,0 10.7174325,2.01400067 10.7174325,4.49656272 C10.7174325,4.84865548 10.7572986,5.1925442 10.8342987,5.52138623 C7.08401158,5.33366074 3.75851921,3.54299608 1.53281296,0.822015501 C1.14375023,1.48514502 0.922419808,2.25782885 0.922419808,3.08263874 C0.922419808,4.64316056 1.71977732,6.02007683 2.92956361,6.82564843 C2.18993822,6.80100051 1.4943129,6.59822832 0.885321708,6.26118227 L0.885321708,6.31735661 C0.885321708,8.49576038 2.44153667,10.3138315 4.50501063,10.7276158 C4.12694792,10.8290019 3.72828714,10.8851762 3.31585836,10.8851762 C3.02442978,10.8851762 2.74259925,10.8564083 2.46626874,10.8015954 C3.04089386,12.5895373 4.707109,13.8897154 6.68125275,13.9253617 C5.13740382,15.1310322 3.19076012,15.8475776 1.07642006,15.8475776 C0.712125347,15.8475776 0.353294695,15.8256524 0,15.7859219 C1.9975098,17.0642106 4.36894832,17.8095238 6.91771719,17.8095238 C15.219783,17.8095238 19.7578297,10.9564331 19.7578297,5.0130944 L19.7426957,4.43082297 C20.6293834,3.80054541 21.3964729,3.00865913 22,2.1071469 Z"/></svg>